<svg width="1044" height="1024" viewBox="0 0 1044 1024" fill="none" xmlns="http://www.w3.org/2000/svg">
<path d="M501 1024V163.227L257.658 0L0 147.682V474.136L250.501 629.591L415.115 528.546L314.914 629.591V893.863L415.115 1024H501Z" fill="#424242"/>
<path d="M238.5 109L383 199.75V381.25L238.5 472L94 381.25V199.75L238.5 109Z" fill="white"/>
<path d="M238.5 109L383 199.75V381.25L238.5 472L94 381.25V199.75L238.5 109Z" fill="#20A353"/>
<path d="M543 1024V163.227L786.343 0L1044 147.682V474.136L793.499 629.591L628.885 528.546L729.086 629.591V893.863L628.885 1024H543Z" fill="#424242"/>
<path d="M805.999 109L662 199.75V381.25L805.999 472L950 381.25V199.75L805.999 109Z" fill="white"/>
<path d="M805.999 109L662 199.75V381.25L805.999 472L950 381.25V199.75L805.999 109Z" fill="#20A353"/>
</svg>
